<svg width="283" height="48" viewBox="0 0 283 48" fill="none" xmlns="http://www.w3.org/2000/svg">
<path d="M27.31 34.1801V27.4401H21.58V34.1801H17.2L22.52 39.5001C23.59 40.5701 25.32 40.5701 26.39 39.5001L31.71 34.1801H27.31ZM14.33 31.3101V16.8101L9.01002 22.1301C7.94002 23.2001 7.94002 24.9301 9.01002 26.0001L14.33 31.3101ZM21.58 13.9501V20.6901H27.31V13.9501H31.69L26.37 8.63014C25.3 7.56014 23.57 7.56014 22.5 8.63014L17.18 13.9501H21.58ZM39.87 22.1301L34.55 16.8101V31.3101L39.87 26.0001C40.94 24.9301 40.94 23.2001 39.87 22.1301Z" fill="#DA292B"/>
<path d="M65.49 21.33H58.27V16.28C58.27 14.95 57.29 13.97 55.96 13.97H53.8H52.5H49.61V19.31H52.5V34.18H58.28V26.82H65.5V34.18H71.28V13.96H65.5V21.33H65.49Z" fill="#DA292B"/>
<path d="M84.55 13.6699C78.46 13.6699 74.01 18.0599 74.01 24.0699C74.01 30.0799 78.46 34.4699 84.55 34.4699C90.64 34.4699 95.09 30.0799 95.09 24.0699C95.09 18.0599 90.64 13.6699 84.55 13.6699ZM84.55 28.8299C81.81 28.8299 79.79 26.8099 79.79 24.0699C79.79 21.3299 81.81 19.3099 84.55 19.3099C87.29 19.3099 89.31 21.3299 89.31 24.0699C89.31 26.8099 87.29 28.8299 84.55 28.8299Z" fill="#DA292B"/>
<path d="M112.96 23.48C114.39 22.61 115.28 21.12 115.28 19.33C115.28 16.21 113.26 13.96 109.24 13.96H97.83V34.17H109.24C113.46 34.17 115.91 31.72 115.91 28.34C115.91 26.18 114.76 24.42 112.96 23.48ZM103.2 18.47H107.5C108.86 18.47 109.64 19.13 109.64 20.26C109.64 21.39 108.86 22.05 107.5 22.05H103.2V18.47ZM107.91 29.73H103.2V25.98H107.91C109.35 25.98 110.16 26.67 110.16 27.86C110.16 29.04 109.35 29.73 107.91 29.73Z" fill="#DA292B"/>
<path d="M124.74 13.96L116.77 34.17H122.92L124.2 30.45H132.32L133.6 34.17H139.87L131.9 13.96H124.74ZM125.77 25.92L128.05 19.31H128.49L130.77 25.92H125.77Z" fill="#DA292B"/>
<path d="M167.48 13.96H165.95H164.02H156.8H153.57H152.33H151.03H148.14V19.3H151.03V34.17H156.81V19.3H164.03V34.17H169.81V16.27C169.79 14.8 168.95 13.96 167.48 13.96Z" fill="#DA292B"/>
<path d="M183.07 13.6699C176.98 13.6699 172.53 18.0599 172.53 24.0699C172.53 30.0799 176.98 34.4699 183.07 34.4699C189.16 34.4699 193.61 30.0799 193.61 24.0699C193.61 18.0599 189.17 13.6699 183.07 13.6699ZM183.07 28.8299C180.33 28.8299 178.31 26.8099 178.31 24.0699C178.31 21.3299 180.33 19.3099 183.07 19.3099C185.81 19.3099 187.83 21.3299 187.83 24.0699C187.83 26.8099 185.82 28.8299 183.07 28.8299Z" fill="#DA292B"/>
<path d="M218.88 28.83H213.39V13.96H207.62V28.83H202.13V13.96H196.36V34.18H199.07H202.13H218.88H222.46H224.66V13.96H218.88V28.83Z" fill="#DA292B"/>
<path d="M247.03 19.3V13.96H227.4V19.3H234.33V34.18H240.1V19.3H247.03Z" fill="#DA292B"/>
<path d="M262.14 34.1797H268.41L260.44 13.9697H253.28L245.31 34.1797H251.46L252.74 30.4597H260.86L262.14 34.1797ZM254.3 25.9197L256.58 19.3097H257.02L259.3 25.9197H254.3Z" fill="#DA292B"/>
</svg>
